<mxfile host="65bd71144e">
    <diagram id="jtDUzQ1pqoce6ORhRkvu" name="Page-1">
        <mxGraphModel dx="1238" dy="873" grid="1" gridSize="10" guides="1" tooltips="1" connect="1" arrows="1" fold="1" page="0" pageScale="1" pageWidth="1100" pageHeight="850" background="none" math="0" shadow="0">
            <root>
                <mxCell id="0"/>
                <mxCell id="1" parent="0"/>
                <mxCell id="11" style="edgeStyle=none;html=1;exitX=0.75;exitY=0;exitDx=0;exitDy=0;entryX=0.75;entryY=1;entryDx=0;entryDy=0;flowAnimation=0;" parent="1" source="2" target="3" edge="1">
                    <mxGeometry relative="1" as="geometry"/>
                </mxCell>
                <mxCell id="13" value="Action" style="edgeLabel;html=1;align=center;verticalAlign=middle;resizable=0;points=[];" parent="11" vertex="1" connectable="0">
                    <mxGeometry x="0.1005" y="-2" relative="1" as="geometry">
                        <mxPoint x="-2" y="4" as="offset"/>
                    </mxGeometry>
                </mxCell>
                <mxCell id="100" style="edgeStyle=none;html=1;entryX=0.25;entryY=0;entryDx=0;entryDy=0;startArrow=none;startFill=0;endArrow=classic;endFill=1;exitX=0.25;exitY=1;exitDx=0;exitDy=0;flowAnimation=0;" parent="1" source="2" target="45" edge="1">
                    <mxGeometry relative="1" as="geometry"/>
                </mxCell>
                <mxCell id="134" value="Presentation" style="edgeLabel;html=1;align=center;verticalAlign=middle;resizable=0;points=[];" parent="100" vertex="1" connectable="0">
                    <mxGeometry x="-0.0074" y="1" relative="1" as="geometry">
                        <mxPoint x="-5" y="1" as="offset"/>
                    </mxGeometry>
                </mxCell>
                <mxCell id="2" value="View" style="rounded=0;whiteSpace=wrap;html=1;" parent="1" vertex="1">
                    <mxGeometry x="320" y="720" width="240" height="40" as="geometry"/>
                </mxCell>
                <mxCell id="14" style="edgeStyle=none;html=1;exitX=0.75;exitY=0;exitDx=0;exitDy=0;entryX=0.5;entryY=1;entryDx=0;entryDy=0;flowAnimation=0;" parent="1" source="3" target="4" edge="1">
                    <mxGeometry relative="1" as="geometry"/>
                </mxCell>
                <mxCell id="15" value="Execute" style="edgeLabel;html=1;align=center;verticalAlign=middle;resizable=0;points=[];" parent="14" vertex="1" connectable="0">
                    <mxGeometry x="0.1945" y="-1" relative="1" as="geometry">
                        <mxPoint y="8" as="offset"/>
                    </mxGeometry>
                </mxCell>
                <mxCell id="32" style="edgeStyle=none;html=1;exitX=0.25;exitY=1;exitDx=0;exitDy=0;entryX=0.25;entryY=0;entryDx=0;entryDy=0;flowAnimation=0;" parent="1" source="3" target="2" edge="1">
                    <mxGeometry relative="1" as="geometry"/>
                </mxCell>
                <mxCell id="33" value="View State" style="edgeLabel;html=1;align=center;verticalAlign=middle;resizable=0;points=[];" parent="32" vertex="1" connectable="0">
                    <mxGeometry x="-0.2245" relative="1" as="geometry">
                        <mxPoint y="9" as="offset"/>
                    </mxGeometry>
                </mxCell>
                <mxCell id="34" style="edgeStyle=none;html=1;entryX=0;entryY=0.5;entryDx=0;entryDy=0;exitX=1;exitY=0.8;exitDx=0;exitDy=0;exitPerimeter=0;flowAnimation=0;" parent="1" source="3" target="10" edge="1">
                    <mxGeometry relative="1" as="geometry">
                        <mxPoint x="570" y="600" as="sourcePoint"/>
                    </mxGeometry>
                </mxCell>
                <mxCell id="35" value="Navigate To" style="edgeLabel;html=1;align=center;verticalAlign=middle;resizable=0;points=[];" parent="34" vertex="1" connectable="0">
                    <mxGeometry x="-0.1014" y="-1" relative="1" as="geometry">
                        <mxPoint x="8" y="-1" as="offset"/>
                    </mxGeometry>
                </mxCell>
                <mxCell id="36" style="edgeStyle=none;html=1;exitX=1.003;exitY=0.106;exitDx=0;exitDy=0;entryX=0;entryY=0.25;entryDx=0;entryDy=0;exitPerimeter=0;flowAnimation=0;" parent="1" source="3" target="6" edge="1">
                    <mxGeometry relative="1" as="geometry"/>
                </mxCell>
                <mxCell id="37" value="Raw Data" style="edgeLabel;html=1;align=center;verticalAlign=middle;resizable=0;points=[];" parent="36" vertex="1" connectable="0">
                    <mxGeometry x="-0.4863" relative="1" as="geometry">
                        <mxPoint x="38" as="offset"/>
                    </mxGeometry>
                </mxCell>
                <mxCell id="3" value="ViewModel" style="rounded=0;whiteSpace=wrap;html=1;" parent="1" vertex="1">
                    <mxGeometry x="320" y="520" width="240" height="100" as="geometry"/>
                </mxCell>
                <mxCell id="17" style="edgeStyle=none;html=1;exitX=1.008;exitY=0.698;exitDx=0;exitDy=0;entryX=0;entryY=0.25;entryDx=0;entryDy=0;exitPerimeter=0;flowAnimation=0;" parent="1" source="4" target="9" edge="1">
                    <mxGeometry relative="1" as="geometry"/>
                </mxCell>
                <mxCell id="23" value="Save Data" style="edgeLabel;html=1;align=center;verticalAlign=middle;resizable=0;points=[];" parent="17" vertex="1" connectable="0">
                    <mxGeometry x="-0.0533" relative="1" as="geometry">
                        <mxPoint x="4" as="offset"/>
                    </mxGeometry>
                </mxCell>
                <mxCell id="25" style="edgeStyle=none;html=1;exitX=1;exitY=0.1;exitDx=0;exitDy=0;entryX=0;entryY=0.25;entryDx=0;entryDy=0;exitPerimeter=0;flowAnimation=0;" parent="1" source="4" target="7" edge="1">
                    <mxGeometry relative="1" as="geometry"/>
                </mxCell>
                <mxCell id="26" value="Request" style="edgeLabel;html=1;align=center;verticalAlign=middle;resizable=0;points=[];" parent="25" vertex="1" connectable="0">
                    <mxGeometry x="0.1833" relative="1" as="geometry">
                        <mxPoint x="-15" as="offset"/>
                    </mxGeometry>
                </mxCell>
                <mxCell id="28" style="edgeStyle=none;html=1;entryX=0.75;entryY=1;entryDx=0;entryDy=0;flowAnimation=0;" parent="1" source="4" target="8" edge="1">
                    <mxGeometry relative="1" as="geometry"/>
                </mxCell>
                <mxCell id="29" value="New Core State" style="edgeLabel;html=1;align=center;verticalAlign=middle;resizable=0;points=[];" parent="28" vertex="1" connectable="0">
                    <mxGeometry x="-0.1071" y="1" relative="1" as="geometry">
                        <mxPoint x="1" y="-6" as="offset"/>
                    </mxGeometry>
                </mxCell>
                <mxCell id="4" value="Use Cases" style="rounded=0;whiteSpace=wrap;html=1;" parent="1" vertex="1">
                    <mxGeometry x="440" y="340" width="120" height="100" as="geometry"/>
                </mxCell>
                <mxCell id="38" style="edgeStyle=none;html=1;exitX=0;exitY=0.75;exitDx=0;exitDy=0;entryX=1;entryY=0.3;entryDx=0;entryDy=0;entryPerimeter=0;flowAnimation=0;" parent="1" source="6" target="3" edge="1">
                    <mxGeometry relative="1" as="geometry">
                        <mxPoint x="600" y="550" as="targetPoint"/>
                    </mxGeometry>
                </mxCell>
                <mxCell id="39" value="Formatted Data" style="edgeLabel;html=1;align=center;verticalAlign=middle;resizable=0;points=[];" parent="38" vertex="1" connectable="0">
                    <mxGeometry x="0.1901" relative="1" as="geometry">
                        <mxPoint x="15" as="offset"/>
                    </mxGeometry>
                </mxCell>
                <mxCell id="6" value="UI Mappers" style="rounded=0;whiteSpace=wrap;html=1;" parent="1" vertex="1">
                    <mxGeometry x="720" y="520" width="120" height="40" as="geometry"/>
                </mxCell>
                <mxCell id="27" value="Response" style="edgeStyle=none;html=1;exitX=0;exitY=0.75;exitDx=0;exitDy=0;entryX=1;entryY=0.299;entryDx=0;entryDy=0;entryPerimeter=0;flowAnimation=0;" parent="1" source="7" target="4" edge="1">
                    <mxGeometry relative="1" as="geometry">
                        <Array as="points">
                            <mxPoint x="650" y="370"/>
                        </Array>
                        <mxPoint as="offset"/>
                    </mxGeometry>
                </mxCell>
                <mxCell id="7" value="Services" style="rounded=0;whiteSpace=wrap;html=1;" parent="1" vertex="1">
                    <mxGeometry x="720" y="340" width="120" height="40" as="geometry"/>
                </mxCell>
                <mxCell id="30" style="edgeStyle=none;html=1;exitX=0.25;exitY=1;exitDx=0;exitDy=0;entryX=0.25;entryY=0;entryDx=0;entryDy=0;flowAnimation=0;" parent="1" source="8" target="3" edge="1">
                    <mxGeometry relative="1" as="geometry"/>
                </mxCell>
                <mxCell id="31" value="Core State" style="edgeLabel;html=1;align=center;verticalAlign=middle;resizable=0;points=[];" parent="30" vertex="1" connectable="0">
                    <mxGeometry x="-0.0599" relative="1" as="geometry">
                        <mxPoint as="offset"/>
                    </mxGeometry>
                </mxCell>
                <mxCell id="8" value="Core State Store" style="rounded=0;whiteSpace=wrap;html=1;" parent="1" vertex="1">
                    <mxGeometry x="320" y="200" width="240" height="40" as="geometry"/>
                </mxCell>
                <mxCell id="19" style="edgeStyle=none;html=1;exitX=0;exitY=0.75;exitDx=0;exitDy=0;entryX=1.01;entryY=0.898;entryDx=0;entryDy=0;entryPerimeter=0;flowAnimation=0;" parent="1" source="9" target="4" edge="1">
                    <mxGeometry relative="1" as="geometry"/>
                </mxCell>
                <mxCell id="24" value="Load Data" style="edgeLabel;html=1;align=center;verticalAlign=middle;resizable=0;points=[];" parent="19" vertex="1" connectable="0">
                    <mxGeometry x="-0.0433" y="1" relative="1" as="geometry">
                        <mxPoint x="-4" y="-1" as="offset"/>
                    </mxGeometry>
                </mxCell>
                <mxCell id="9" value="Repositories" style="rounded=0;whiteSpace=wrap;html=1;" parent="1" vertex="1">
                    <mxGeometry x="720" y="400" width="120" height="40" as="geometry"/>
                </mxCell>
                <mxCell id="99" style="edgeStyle=none;html=1;startArrow=none;startFill=0;endArrow=classic;endFill=1;entryX=0;entryY=0.714;entryDx=0;entryDy=0;entryPerimeter=0;flowAnimation=0;" parent="1" source="10" target="40" edge="1">
                    <mxGeometry relative="1" as="geometry">
                        <mxPoint x="1110" y="600" as="targetPoint"/>
                    </mxGeometry>
                </mxCell>
                <mxCell id="10" value="Navigator" style="rounded=0;whiteSpace=wrap;html=1;" parent="1" vertex="1">
                    <mxGeometry x="720" y="580" width="120" height="40" as="geometry"/>
                </mxCell>
                <mxCell id="92" style="edgeStyle=none;html=1;startArrow=none;startFill=0;endArrow=classic;endFill=1;exitX=-0.018;exitY=0.41;exitDx=0;exitDy=0;exitPerimeter=0;flowAnimation=0;" parent="1" source="40" edge="1">
                    <mxGeometry relative="1" as="geometry">
                        <mxPoint x="1040" y="430" as="targetPoint"/>
                    </mxGeometry>
                </mxCell>
                <mxCell id="94" style="edgeStyle=none;html=1;entryX=1;entryY=0.75;entryDx=0;entryDy=0;startArrow=none;startFill=0;endArrow=classic;endFill=1;exitX=0;exitY=0.304;exitDx=0;exitDy=0;exitPerimeter=0;flowAnimation=0;" parent="1" source="40" target="53" edge="1">
                    <mxGeometry relative="1" as="geometry"/>
                </mxCell>
                <mxCell id="40" value="External" style="rounded=0;whiteSpace=wrap;html=1;" parent="1" vertex="1">
                    <mxGeometry x="1120" y="200" width="110" height="560" as="geometry"/>
                </mxCell>
                <mxCell id="44" value="Stopwatch Data Flow" style="text;html=1;strokeColor=none;fillColor=none;align=center;verticalAlign=middle;whiteSpace=wrap;rounded=0;fontSize=18;" parent="1" vertex="1">
                    <mxGeometry x="660" y="160" width="230" height="30" as="geometry"/>
                </mxCell>
                <mxCell id="45" value="&lt;svg style=&quot;font-size: 50px;&quot; stroke=&quot;currentColor&quot; fill=&quot;currentColor&quot; stroke-width=&quot;0&quot; viewBox=&quot;0 0 24 24&quot; height=&quot;1em&quot; width=&quot;1em&quot; xmlns=&quot;http://www.w3.org/2000/svg&quot;&gt;&lt;g id=&quot;User&quot; style=&quot;font-size: 50px;&quot;&gt;&lt;g style=&quot;font-size: 50px;&quot;&gt;&lt;path d=&quot;M17.438,21.937H6.562a2.5,2.5,0,0,1-2.5-2.5V18.61c0-3.969,3.561-7.2,7.938-7.2s7.938,3.229,7.938,7.2v.827A2.5,2.5,0,0,1,17.438,21.937ZM12,12.412c-3.826,0-6.938,2.78-6.938,6.2v.827a1.5,1.5,0,0,0,1.5,1.5H17.438a1.5,1.5,0,0,0,1.5-1.5V18.61C18.938,15.192,15.826,12.412,12,12.412Z&quot; style=&quot;font-size: 50px;&quot;&gt;&lt;/path&gt;&lt;path d=&quot;M12,9.911a3.924,3.924,0,1,1,3.923-3.924A3.927,3.927,0,0,1,12,9.911Zm0-6.847a2.924,2.924,0,1,0,2.923,2.923A2.926,2.926,0,0,0,12,3.064Z&quot; style=&quot;font-size: 50px;&quot;&gt;&lt;/path&gt;&lt;/g&gt;&lt;/g&gt;&lt;/svg&gt;" style="text;whiteSpace=wrap;html=1;fontSize=50;" parent="1" vertex="1">
                    <mxGeometry x="415" y="840" width="50" height="60" as="geometry"/>
                </mxCell>
                <mxCell id="93" style="edgeStyle=none;html=1;exitX=1;exitY=0.25;exitDx=0;exitDy=0;entryX=0;entryY=0.268;entryDx=0;entryDy=0;entryPerimeter=0;startArrow=none;startFill=0;endArrow=classic;endFill=1;flowAnimation=0;" parent="1" source="53" target="40" edge="1">
                    <mxGeometry relative="1" as="geometry"/>
                </mxCell>
                <mxCell id="53" value="External Resource Adapter" style="rounded=0;whiteSpace=wrap;html=1;" parent="1" vertex="1">
                    <mxGeometry x="920" y="340" width="120" height="40" as="geometry"/>
                </mxCell>
                <mxCell id="91" style="edgeStyle=none;html=1;exitX=1;exitY=0.25;exitDx=0;exitDy=0;entryX=0;entryY=0.375;entryDx=0;entryDy=0;entryPerimeter=0;startArrow=none;startFill=0;endArrow=classic;endFill=1;flowAnimation=0;" parent="1" source="54" target="40" edge="1">
                    <mxGeometry relative="1" as="geometry"/>
                </mxCell>
                <mxCell id="54" value="Data Source&lt;br&gt;Adapter" style="rounded=0;whiteSpace=wrap;html=1;" parent="1" vertex="1">
                    <mxGeometry x="920" y="400" width="120" height="40" as="geometry"/>
                </mxCell>
                <mxCell id="66" value="" style="whiteSpace=wrap;html=1;aspect=fixed;" parent="1" vertex="1">
                    <mxGeometry x="1120" y="835" width="20" height="20" as="geometry"/>
                </mxCell>
                <mxCell id="67" value="Core" style="text;html=1;strokeColor=none;fillColor=none;align=left;verticalAlign=middle;whiteSpace=wrap;rounded=0;dashed=1;dashPattern=1 1;" parent="1" vertex="1">
                    <mxGeometry x="1150" y="830" width="50" height="30" as="geometry"/>
                </mxCell>
                <mxCell id="68" value="" style="whiteSpace=wrap;html=1;aspect=fixed;" parent="1" vertex="1">
                    <mxGeometry x="1120" y="865" width="20" height="20" as="geometry"/>
                </mxCell>
                <mxCell id="69" value="Platform" style="text;html=1;strokeColor=none;fillColor=none;align=left;verticalAlign=middle;whiteSpace=wrap;rounded=0;dashed=1;dashPattern=1 1;" parent="1" vertex="1">
                    <mxGeometry x="1150" y="860" width="50" height="30" as="geometry"/>
                </mxCell>
                <mxCell id="70" value="" style="whiteSpace=wrap;html=1;aspect=fixed;" parent="1" vertex="1">
                    <mxGeometry x="1120" y="895" width="20" height="20" as="geometry"/>
                </mxCell>
                <mxCell id="71" value="External" style="text;html=1;strokeColor=none;fillColor=none;align=left;verticalAlign=middle;whiteSpace=wrap;rounded=0;dashed=1;dashPattern=1 1;" parent="1" vertex="1">
                    <mxGeometry x="1150" y="890" width="70" height="30" as="geometry"/>
                </mxCell>
                <mxCell id="72" value="Layers" style="text;html=1;strokeColor=none;fillColor=none;align=left;verticalAlign=middle;whiteSpace=wrap;rounded=0;fontSize=14;" parent="1" vertex="1">
                    <mxGeometry x="1120" y="800" width="80" height="20" as="geometry"/>
                </mxCell>
                <mxCell id="75" value="&lt;svg stroke=&quot;currentColor&quot; fill=&quot;none&quot; stroke-width=&quot;2&quot; viewBox=&quot;0 0 24 24&quot; stroke-linecap=&quot;round&quot; stroke-linejoin=&quot;round&quot; height=&quot;1em&quot; width=&quot;1em&quot; xmlns=&quot;http://www.w3.org/2000/svg&quot; style=&quot;font-size: 40px;&quot;&gt;&lt;ellipse cx=&quot;12&quot; cy=&quot;5&quot; rx=&quot;9&quot; ry=&quot;3&quot; style=&quot;font-size: 40px;&quot;&gt;&lt;/ellipse&gt;&lt;path d=&quot;M21 12c0 1.66-4 3-9 3s-9-1.34-9-3&quot; style=&quot;font-size: 40px;&quot;&gt;&lt;/path&gt;&lt;path d=&quot;M3 5v14c0 1.66 4 3 9 3s9-1.34 9-3V5&quot; style=&quot;font-size: 40px;&quot;&gt;&lt;/path&gt;&lt;/svg&gt;" style="text;whiteSpace=wrap;html=1;fontSize=40;" parent="1" vertex="1">
                    <mxGeometry x="1152.5" y="380" width="45" height="50" as="geometry"/>
                </mxCell>
                <mxCell id="76" value="&lt;svg stroke=&quot;currentColor&quot; fill=&quot;currentColor&quot; stroke-width=&quot;0&quot; viewBox=&quot;0 0 512 512&quot; height=&quot;1em&quot; width=&quot;1em&quot; xmlns=&quot;http://www.w3.org/2000/svg&quot; style=&quot;font-size: 44px;&quot;&gt;&lt;path fill=&quot;none&quot; stroke-miterlimit=&quot;10&quot; stroke-width=&quot;32&quot; d=&quot;M256 48C141.13 48 48 141.13 48 256s93.13 208 208 208 208-93.13 208-208S370.87 48 256 48z&quot; style=&quot;font-size: 44px;&quot;&gt;&lt;/path&gt;&lt;path fill=&quot;none&quot; stroke-miterlimit=&quot;10&quot; stroke-width=&quot;32&quot; d=&quot;M256 48c-58.07 0-112.67 93.13-112.67 208S197.93 464 256 464s112.67-93.13 112.67-208S314.07 48 256 48z&quot; style=&quot;font-size: 44px;&quot;&gt;&lt;/path&gt;&lt;path fill=&quot;none&quot; stroke-linecap=&quot;round&quot; stroke-linejoin=&quot;round&quot; stroke-width=&quot;32&quot; d=&quot;M117.33 117.33c38.24 27.15 86.38 43.34 138.67 43.34s100.43-16.19 138.67-43.34m0 277.34c-38.24-27.15-86.38-43.34-138.67-43.34s-100.43 16.19-138.67 43.34&quot; style=&quot;font-size: 44px;&quot;&gt;&lt;/path&gt;&lt;path fill=&quot;none&quot; stroke-miterlimit=&quot;10&quot; stroke-width=&quot;32&quot; d=&quot;M256 48v416m208-208H48&quot; style=&quot;font-size: 44px;&quot;&gt;&lt;/path&gt;&lt;/svg&gt;" style="text;whiteSpace=wrap;html=1;fontSize=44;" parent="1" vertex="1">
                    <mxGeometry x="1150" y="310" width="50" height="60" as="geometry"/>
                </mxCell>
                <mxCell id="78" value="&lt;svg stroke=&quot;currentColor&quot; fill=&quot;none&quot; stroke-width=&quot;2&quot; viewBox=&quot;0 0 24 24&quot; stroke-linecap=&quot;round&quot; stroke-linejoin=&quot;round&quot; height=&quot;1em&quot; width=&quot;1em&quot; xmlns=&quot;http://www.w3.org/2000/svg&quot;&gt;&lt;path d=&quot;M4 10l0 6&quot;&gt;&lt;/path&gt;&lt;path d=&quot;M20 10l0 6&quot;&gt;&lt;/path&gt;&lt;path d=&quot;M7 9h10v8a1 1 0 0 1 -1 1h-8a1 1 0 0 1 -1 -1v-8a5 5 0 0 1 10 0&quot;&gt;&lt;/path&gt;&lt;path d=&quot;M8 3l1 2&quot;&gt;&lt;/path&gt;&lt;path d=&quot;M16 3l-1 2&quot;&gt;&lt;/path&gt;&lt;path d=&quot;M9 18l0 3&quot;&gt;&lt;/path&gt;&lt;path d=&quot;M15 18l0 3&quot;&gt;&lt;/path&gt;&lt;/svg&gt;" style="text;whiteSpace=wrap;html=1;fontSize=50;" parent="1" vertex="1">
                    <mxGeometry x="1150" y="535" width="50" height="60" as="geometry"/>
                </mxCell>
                <mxCell id="79" value="&lt;svg stroke=&quot;currentColor&quot; fill=&quot;currentColor&quot; stroke-width=&quot;0&quot; viewBox=&quot;0 0 1024 1024&quot; height=&quot;1em&quot; width=&quot;1em&quot; xmlns=&quot;http://www.w3.org/2000/svg&quot;&gt;&lt;path d=&quot;M747.4 535.7c-.4-68.2 30.5-119.6 92.9-157.5-34.9-50-87.7-77.5-157.3-82.8-65.9-5.2-138 38.4-164.4 38.4-27.9 0-91.7-36.6-141.9-36.6C273.1 298.8 163 379.8 163 544.6c0 48.7 8.9 99 26.7 150.8 23.8 68.2 109.6 235.3 199.1 232.6 46.8-1.1 79.9-33.2 140.8-33.2 59.1 0 89.7 33.2 141.9 33.2 90.3-1.3 167.9-153.2 190.5-221.6-121.1-57.1-114.6-167.2-114.6-170.7zm-10.6 267c-14.3 19.9-28.7 35.6-41.9 45.7-10.5 8-18.6 11.4-24 11.6-9-.1-17.7-2.3-34.7-8.8-1.2-.5-2.5-1-4.2-1.6l-4.4-1.7c-17.4-6.7-27.8-10.3-41.1-13.8-18.6-4.8-37.1-7.4-56.9-7.4-20.2 0-39.2 2.5-58.1 7.2-13.9 3.5-25.6 7.4-42.7 13.8-.7.3-8.1 3.1-10.2 3.9-3.5 1.3-6.2 2.3-8.7 3.2-10.4 3.6-17 5.1-22.9 5.2-.7 0-1.3-.1-1.8-.2-1.1-.2-2.5-.6-4.1-1.3-4.5-1.8-9.9-5.1-16-9.8-14-10.9-29.4-28-45.1-49.9-27.5-38.6-53.5-89.8-66-125.7-15.4-44.8-23-87.7-23-128.6 0-60.2 17.8-106 48.4-137.1 26.3-26.6 61.7-41.5 97.8-42.3 5.9.1 14.5 1.5 25.4 4.5 8.6 2.3 18 5.4 30.7 9.9 3.8 1.4 16.9 6.1 18.5 6.7 7.7 2.8 13.5 4.8 19.2 6.6 18.2 5.8 32.3 9 47.6 9 15.5 0 28.8-3.3 47.7-9.8 7.1-2.4 32.9-12 37.5-13.6 25.6-9.1 44.5-14 60.8-15.2 4.8-.4 9.1-.4 13.2-.1 22.7 1.8 42.1 6.3 58.6 13.8-37.6 43.4-57 96.5-56.9 158.4-.3 14.7.9 31.7 5.1 51.8 6.4 30.5 18.6 60.7 37.9 89 14.7 21.5 32.9 40.9 54.7 57.8-11.5 23.7-25.6 48.2-40.4 68.8zm-94.5-572c50.7-60.2 46.1-115 44.6-134.7-44.8 2.6-96.6 30.5-126.1 64.8-32.5 36.8-51.6 82.3-47.5 133.6 48.4 3.7 92.6-21.2 129-63.7z&quot;&gt;&lt;/path&gt;&lt;/svg&gt;" style="text;whiteSpace=wrap;html=1;fontSize=50;" parent="1" vertex="1">
                    <mxGeometry x="1150" y="595" width="50" height="70" as="geometry"/>
                </mxCell>
                <mxCell id="85" style="edgeStyle=none;html=1;fontSize=12;startArrow=none;startFill=0;exitX=0.764;exitY=-0.025;exitDx=0;exitDy=0;exitPerimeter=0;entryX=0.75;entryY=1;entryDx=0;entryDy=0;flowAnimation=0;" parent="1" source="45" target="2" edge="1">
                    <mxGeometry relative="1" as="geometry">
                        <mxPoint x="465" y="770.66" as="targetPoint"/>
                        <mxPoint x="507.6500000000001" y="849.3399999999998" as="sourcePoint"/>
                    </mxGeometry>
                </mxCell>
                <mxCell id="133" value="Interaction" style="edgeLabel;html=1;align=center;verticalAlign=middle;resizable=0;points=[];" parent="85" vertex="1" connectable="0">
                    <mxGeometry x="0.1275" relative="1" as="geometry">
                        <mxPoint y="6" as="offset"/>
                    </mxGeometry>
                </mxCell>
                <mxCell id="95" style="edgeStyle=none;html=1;entryX=1;entryY=0.75;entryDx=0;entryDy=0;startArrow=none;startFill=0;endArrow=classic;endFill=1;exitX=0;exitY=0.304;exitDx=0;exitDy=0;exitPerimeter=0;flowAnimation=0;" parent="1" edge="1">
                    <mxGeometry relative="1" as="geometry">
                        <mxPoint x="920" y="369.5299999999999" as="sourcePoint"/>
                        <mxPoint x="840.0000000000002" y="369.29000000000013" as="targetPoint"/>
                    </mxGeometry>
                </mxCell>
                <mxCell id="96" style="edgeStyle=none;html=1;exitX=1;exitY=0.25;exitDx=0;exitDy=0;entryX=0;entryY=0.268;entryDx=0;entryDy=0;entryPerimeter=0;startArrow=none;startFill=0;endArrow=classic;endFill=1;flowAnimation=0;" parent="1" edge="1">
                    <mxGeometry relative="1" as="geometry">
                        <mxPoint x="840.0000000000002" y="349.29" as="sourcePoint"/>
                        <mxPoint x="920" y="349.36999999999995" as="targetPoint"/>
                    </mxGeometry>
                </mxCell>
                <mxCell id="97" style="edgeStyle=none;html=1;entryX=1;entryY=0.75;entryDx=0;entryDy=0;startArrow=none;startFill=0;endArrow=classic;endFill=1;exitX=0;exitY=0.304;exitDx=0;exitDy=0;exitPerimeter=0;flowAnimation=0;" parent="1" edge="1">
                    <mxGeometry relative="1" as="geometry">
                        <mxPoint x="920" y="429.8799999999999" as="sourcePoint"/>
                        <mxPoint x="840.0000000000002" y="429.6400000000001" as="targetPoint"/>
                    </mxGeometry>
                </mxCell>
                <mxCell id="98" style="edgeStyle=none;html=1;exitX=1;exitY=0.25;exitDx=0;exitDy=0;entryX=0;entryY=0.268;entryDx=0;entryDy=0;entryPerimeter=0;startArrow=none;startFill=0;endArrow=classic;endFill=1;flowAnimation=0;" parent="1" edge="1">
                    <mxGeometry relative="1" as="geometry">
                        <mxPoint x="840.0000000000002" y="409.64" as="sourcePoint"/>
                        <mxPoint x="920" y="409.7199999999999" as="targetPoint"/>
                    </mxGeometry>
                </mxCell>
                <mxCell id="101" value="1" style="text;html=1;align=center;verticalAlign=middle;resizable=0;points=[];autosize=1;strokeColor=none;fillColor=none;fontStyle=0" parent="1" vertex="1">
                    <mxGeometry x="500" y="760" width="30" height="30" as="geometry"/>
                </mxCell>
                <mxCell id="102" value="3 b,&amp;nbsp; 7 b" style="text;html=1;align=center;verticalAlign=middle;resizable=0;points=[];autosize=1;strokeColor=none;fillColor=none;fontStyle=0" parent="1" vertex="1">
                    <mxGeometry x="654" y="570" width="70" height="30" as="geometry"/>
                </mxCell>
                <mxCell id="103" value="3 a" style="text;html=1;align=center;verticalAlign=middle;resizable=0;points=[];autosize=1;strokeColor=none;fillColor=none;fontStyle=0" parent="1" vertex="1">
                    <mxGeometry x="500" y="440" width="40" height="30" as="geometry"/>
                </mxCell>
                <mxCell id="104" value="4 a" style="text;html=1;align=center;verticalAlign=middle;resizable=0;points=[];autosize=1;strokeColor=none;fillColor=none;fontStyle=0" parent="1" vertex="1">
                    <mxGeometry x="680" y="320" width="40" height="30" as="geometry"/>
                </mxCell>
                <mxCell id="105" value="4 b" style="text;html=1;align=center;verticalAlign=middle;resizable=0;points=[];autosize=1;strokeColor=none;fillColor=none;fontStyle=0" parent="1" vertex="1">
                    <mxGeometry x="680" y="380" width="40" height="30" as="geometry"/>
                </mxCell>
                <mxCell id="106" value="5" style="text;html=1;align=center;verticalAlign=middle;resizable=0;points=[];autosize=1;strokeColor=none;fillColor=none;fontStyle=0" parent="1" vertex="1">
                    <mxGeometry x="500" y="240" width="30" height="30" as="geometry"/>
                </mxCell>
                <mxCell id="107" value="6" style="text;html=1;align=center;verticalAlign=middle;resizable=0;points=[];autosize=1;strokeColor=none;fillColor=none;fontStyle=0" parent="1" vertex="1">
                    <mxGeometry x="350" y="490" width="30" height="30" as="geometry"/>
                </mxCell>
                <mxCell id="108" value="8" style="text;html=1;align=center;verticalAlign=middle;resizable=0;points=[];autosize=1;strokeColor=none;fillColor=none;fontStyle=0" parent="1" vertex="1">
                    <mxGeometry x="350" y="690" width="30" height="30" as="geometry"/>
                </mxCell>
                <mxCell id="109" value="7 a" style="text;html=1;align=center;verticalAlign=middle;resizable=0;points=[];autosize=1;strokeColor=none;fillColor=none;fontStyle=0" parent="1" vertex="1">
                    <mxGeometry x="680" y="500" width="40" height="30" as="geometry"/>
                </mxCell>
                <mxCell id="135" value="2" style="text;html=1;align=center;verticalAlign=middle;resizable=0;points=[];autosize=1;strokeColor=none;fillColor=none;fontStyle=0" parent="1" vertex="1">
                    <mxGeometry x="500" y="620" width="30" height="30" as="geometry"/>
                </mxCell>
                <mxCell id="136" value="9" style="text;html=1;align=center;verticalAlign=middle;resizable=0;points=[];autosize=1;strokeColor=none;fillColor=none;fontStyle=0" parent="1" vertex="1">
                    <mxGeometry x="390" y="820" width="30" height="30" as="geometry"/>
                </mxCell>
                <mxCell id="137" value="User" style="text;html=1;align=center;verticalAlign=middle;resizable=0;points=[];autosize=1;strokeColor=none;fillColor=none;fontSize=12;" parent="1" vertex="1">
                    <mxGeometry x="415" y="893" width="50" height="30" as="geometry"/>
                </mxCell>
            </root>
        </mxGraphModel>
    </diagram>
</mxfile>